<svg width="164" height="39" viewBox="0 0 164 39" fill="none" xmlns="http://www.w3.org/2000/svg">
<g id="Group">
<path id="Vector" d="M0 28.3387C0 31.0071 0 32.4978 0.968971 33.4668C1.93794 34.4357 3.42867 34.4357 6.09706 34.4357H24.4181C27.0865 34.4357 28.5772 34.4357 29.5462 33.4668C30.5151 32.4978 30.5151 31.0071 30.5151 28.3387V10.0326C30.5151 7.36418 30.5151 5.87346 29.5462 4.90449C28.5772 3.93552 27.0865 3.93552 24.4181 3.93552H6.11197C3.44357 3.93552 1.95285 3.93552 0.983879 4.90449C0.0149082 5.87346 0.0149082 7.36418 0.0149082 10.0326V28.3387H0Z" fill="#FF0000"/>
<path id="Vector_2" d="M97.6573 14.1023L94.5864 3.9206H97.4039L99.4909 11.5978H99.9232L102.01 3.9206H104.828L101.757 14.1023H97.6573ZM54.4412 9.01888C54.4412 5.9629 56.7965 3.72681 59.7183 3.72681C62.6551 3.72681 65.0104 5.9629 65.0104 9.01888C65.0104 12.0749 62.6849 14.311 59.7183 14.311C56.7667 14.311 54.4412 12.06 54.4412 9.01888ZM57.1543 9.01888C57.1543 10.6289 58.2425 11.8065 59.7333 11.8065C61.2687 11.8065 62.3271 10.6587 62.3271 9.01888C62.3271 7.4089 61.2389 6.23123 59.7333 6.23123C58.2276 6.23123 57.1543 7.4089 57.1543 9.01888ZM79.6046 0H76.9064V2.50442H79.6046V0ZM79.6046 3.9206H76.9064V14.1023H79.6046V3.9206ZM93.2746 0H90.5763V2.50442H93.2746V0ZM93.2746 3.9206H90.5763V14.1023H93.2746V3.9206ZM105.096 9.01888C105.096 5.9629 107.451 3.72681 110.373 3.72681C113.31 3.72681 115.665 5.9629 115.665 9.01888C115.665 9.28721 115.635 9.55554 115.606 9.80897V9.82387H112.922H107.839C108.107 11.1506 109.091 12.06 110.448 12.06C111.312 12.06 112.162 11.6724 112.594 11.0015H115.471C114.786 13.0289 112.729 14.3259 110.448 14.3259C107.377 14.311 105.096 12.06 105.096 9.01888ZM107.928 7.88593H112.818C112.445 6.75298 111.536 5.99271 110.358 5.99271C109.21 5.99271 108.301 6.73807 107.928 7.88593ZM45.4521 18.0378H42.7539V3.9206H45.4521V4.90448H45.6906C46.3615 4.14421 47.4199 3.72681 48.5677 3.72681C51.3405 3.72681 53.2337 5.9629 53.2337 9.01888C53.2337 12.0749 51.3405 14.311 48.5677 14.311C47.3304 14.311 46.3167 13.819 45.6906 13.1333H45.4521V18.0378ZM47.9714 6.23123C46.4956 6.23123 45.4521 7.4089 45.4521 9.01888C45.4521 10.6289 46.5105 11.8065 47.9714 11.8065C49.4473 11.8065 50.5206 10.6289 50.5206 9.01888C50.5206 7.4089 49.4473 6.23123 47.9714 6.23123ZM88.8471 11.5978H86.7303C85.3141 11.5978 84.6731 11.0165 84.6731 9.54064V6.42502H88.8322V3.9206H84.6731V0H81.9749V9.8686C81.9749 12.6264 83.3463 14.1172 86.2234 14.1172H88.8471V11.5978ZM61.2538 29.3524C61.2538 29.6207 61.224 29.889 61.1942 30.1425V30.1574H58.5109H53.4275C53.6958 31.4841 54.6797 32.3934 56.0363 32.3934C56.9009 32.3934 57.7506 32.0059 58.1829 31.335H61.06C60.3743 33.3624 58.3171 34.6593 56.0363 34.6593C52.9505 34.6593 50.6697 32.4084 50.6697 29.3673C50.6697 26.3113 53.025 24.0752 55.9468 24.0752C58.8985 24.0603 61.2538 26.2964 61.2538 29.3524ZM53.5318 28.2194H58.4214C58.0487 27.0865 57.1394 26.3262 55.9617 26.3262C54.799 26.3411 53.8896 27.0865 53.5318 28.2194ZM80.1562 24.0603C78.9934 24.0603 77.9648 24.4628 77.2791 25.238H77.0704V20.3484H74.3722V34.4656H77.0704V28.6964C77.0704 27.4293 77.9648 26.5647 79.2468 26.5647C80.514 26.5647 81.4233 27.4293 81.4233 28.6964V34.4506H84.1215V28.2939C84.1215 25.7895 82.4966 24.0603 80.1562 24.0603ZM67.7981 32.14C66.3074 32.14 65.2638 30.9624 65.2638 29.3524C65.2638 27.7424 66.3074 26.5647 67.7981 26.5647C68.9161 26.5647 69.7509 27.1163 70.0491 28.1449H72.8367C72.479 25.6554 70.3323 24.0454 67.7832 24.0454C64.8613 24.0454 62.5507 26.2815 62.5507 29.3375C62.5507 32.3785 64.8315 34.6295 67.7832 34.6295C70.3621 34.6295 72.479 32.8854 72.8367 30.4555H70.0491C69.8106 31.499 68.931 32.14 67.7981 32.14ZM45.4521 20.3484H42.7539V30.217C42.7539 32.9748 44.1254 34.4656 47.0025 34.4656H49.6261V31.9611H47.5093C46.0931 31.9611 45.4521 31.3797 45.4521 29.9039V26.7883H49.6112V24.2839H45.4521V20.3484ZM108.077 29.3524C108.077 32.4084 105.752 34.6444 102.785 34.6444C99.8337 34.6444 97.5082 32.3934 97.5082 29.3524C97.5082 26.2964 99.8636 24.0603 102.785 24.0603C105.722 24.0603 108.077 26.2964 108.077 29.3524ZM105.379 29.3524C105.379 27.7424 104.291 26.5647 102.785 26.5647C101.295 26.5647 100.206 27.7424 100.206 29.3524C100.206 30.9624 101.295 32.14 102.785 32.14C104.321 32.14 105.379 30.9922 105.379 29.3524ZM124.431 29.3524C124.431 32.4084 122.105 34.6444 119.139 34.6444C116.187 34.6444 113.861 32.3934 113.861 29.3524C113.861 26.2964 116.217 24.0603 119.139 24.0603C122.06 24.0603 124.431 26.2964 124.431 29.3524ZM121.732 29.3524C121.732 27.7424 120.644 26.5647 119.139 26.5647C117.648 26.5647 116.56 27.7424 116.56 29.3524C116.56 30.9624 117.648 32.14 119.139 32.14C120.659 32.14 121.732 30.9922 121.732 29.3524ZM138.593 22.8528H141.291V20.3484H138.593V22.8528ZM138.593 34.4506H141.291V24.269H138.593V34.4506ZM153.515 29.3524C153.515 29.6207 153.485 29.889 153.455 30.1425V30.1574H150.772H145.703C145.972 31.4841 146.956 32.3934 148.312 32.3934C149.177 32.3934 150.026 32.0059 150.459 31.335H153.336C152.65 33.3624 150.593 34.6593 148.312 34.6593C145.226 34.6593 142.945 32.4084 142.945 29.3673C142.945 26.3113 145.301 24.0752 148.223 24.0752C151.159 24.0603 153.515 26.2964 153.515 29.3524ZM145.793 28.2194H150.682C150.31 27.0865 149.4 26.3262 148.223 26.3262C147.06 26.3411 146.151 27.0865 145.793 28.2194ZM109.613 34.4506H112.311V20.3484H109.613V34.4506ZM92.0969 24.0603C90.9341 24.0603 89.9055 24.4628 89.2198 25.238H89.0111V24.2541H86.3129V34.4357H89.0111V28.6964C89.0111 27.4293 89.9055 26.5647 91.1875 26.5647C92.4696 26.5647 93.364 27.4293 93.364 28.6964V34.4506H96.0622V28.2939C96.0622 25.7895 94.4224 24.0603 92.0969 24.0603ZM133.509 24.269H136.207V34.6593C136.207 37.4172 134.836 38.9079 131.959 38.9079H127.278V36.4035H131.452C132.868 36.4035 133.509 35.8221 133.509 34.3463V33.3028H133.271C132.645 33.9736 131.631 34.4656 130.394 34.4656C127.621 34.4656 125.728 32.2742 125.728 29.2778C125.728 26.2666 127.621 24.0901 130.394 24.0901C131.541 24.0901 132.6 24.5075 133.271 25.2529C133.271 25.2529 133.286 25.2678 133.286 25.2827H133.494V24.269H133.509ZM130.99 31.9909C132.466 31.9909 133.509 30.8431 133.509 29.2629C133.509 27.6828 132.451 26.5349 130.99 26.5349C129.514 26.5349 128.441 27.6828 128.441 29.2629C128.441 30.8431 129.514 31.9909 130.99 31.9909ZM160.521 28.3983L158.822 28.1449C157.883 28.0107 157.51 27.7573 157.51 27.2803C157.51 26.6542 157.987 26.2517 159.135 26.2517C160.283 26.2517 160.909 26.7883 160.909 27.4591H163.607C163.607 26.1473 162.25 24.0752 159.135 24.0752C156.332 24.0752 154.886 25.5808 154.886 27.2654C154.886 28.9499 156.124 29.8741 158.225 30.2021L159.835 30.4555C160.953 30.6344 161.177 31.022 161.177 31.5139C161.177 32.0059 160.7 32.4829 159.358 32.4829C158.017 32.4829 157.45 31.8121 157.45 31.2754H154.752C154.752 32.0208 155.572 34.6593 159.358 34.6593C162.34 34.6593 163.801 33.1984 163.801 31.5139C163.801 29.6952 162.608 28.7114 160.521 28.3983ZM71.9423 8.04991L70.2429 7.79649C69.3037 7.66232 68.931 7.4089 68.931 6.93187C68.931 6.30576 69.4081 5.90327 70.5559 5.90327C71.7038 5.90327 72.3299 6.43993 72.3299 7.11076H75.0281C75.0281 5.79892 73.6715 3.72681 70.5559 3.72681C67.7534 3.72681 66.3074 5.23244 66.3074 6.91696C66.3074 8.61639 67.5446 9.52573 69.6466 9.85369L71.2566 10.1071C72.3746 10.286 72.5982 10.6736 72.5982 11.1655C72.5982 11.6575 72.1212 12.1345 70.7795 12.1345C69.4379 12.1345 68.8714 11.4637 68.8714 10.927H66.1732C66.1732 11.6724 66.9931 14.311 70.7795 14.311C73.761 14.311 75.2219 12.85 75.2219 11.1655C75.2219 9.34684 74.0442 8.36296 71.9423 8.04991Z" fill="white"/>
</g>
</svg>
