<svg width="68" height="75" viewBox="0 0 68 75" fill="none" xmlns="http://www.w3.org/2000/svg">
<g id="Group 66">
<path id="Vector" d="M34 0.508423C24.9847 0.508423 16.3306 4.41521 9.96094 11.3625C3.58468 18.3126 0.00176625 27.7383 0 37.567C0 47.3916 3.58594 56.8242 9.96094 63.7715C16.3306 70.7189 24.9847 74.6257 34 74.6257C43.0153 74.6257 51.6694 70.7189 58.0391 63.7715C64.4141 56.8242 68 47.3916 68 37.567C68 27.7425 64.4141 18.3099 58.0391 11.3625C51.6694 4.41521 43.0153 0.508423 34 0.508423Z" fill="#0062C8"/>
<path id="Vector_2" d="M15.3904 37.1756C25.3035 32.4692 31.9123 29.3661 35.2166 27.8669C44.6623 23.5861 46.6226 22.8426 47.9029 22.8174C48.1844 22.8125 48.8113 22.8884 49.2204 23.2488C49.5604 23.5528 49.656 23.9639 49.7038 24.2526C49.7463 24.5409 49.8048 25.1981 49.757 25.7112C49.247 31.5711 47.0316 45.7912 45.9054 52.3546C45.4326 55.1317 44.4923 56.0628 43.5838 56.1537C41.6076 56.3517 40.1095 54.7315 38.197 53.3656C35.206 51.2272 33.5166 49.8966 30.6107 47.8103C27.2532 45.3991 29.4313 44.0737 31.3438 41.9081C31.8432 41.3412 40.5451 32.7164 40.7098 31.9341C40.731 31.8363 40.7523 31.4715 40.5504 31.2792C40.3538 31.0864 40.0616 31.1524 39.8491 31.2045C39.5463 31.2787 34.7704 34.7228 25.5054 41.5364C24.1507 42.552 22.9235 43.0471 21.8185 43.021C20.6073 42.9927 18.2698 42.2729 16.5326 41.658C14.4076 40.9035 12.7129 40.5045 12.8616 39.2231C12.936 38.556 13.7807 37.8734 15.3904 37.1756Z" fill="white"/>
</g>
</svg>
